<?xml version="1.0" encoding="utf-8" ?><svg xmlns="http://www.w3.org/2000/svg" xmlns:xlink="http://www.w3.org/1999/xlink" width="1024" height="1024" viewBox="0 0 1024 1024"><path fill="#FFFEFB" d="M0 0L1024 0L1024 1024L0 1024L0 0Z"/><path fill="#4D6230" d="M378.556 412.879C377.988 410.776 377.978 409.198 377.973 407.033C377.925 387.479 377.951 367.902 377.958 348.35L377.948 238.179L377.946 195.52C377.946 191.921 377.742 177.985 378.345 175.392L555.322 175.329L614.766 175.325C624.706 175.325 636.498 175.015 646.261 175.407C646.939 179.821 646.61 193.294 646.603 198.476L646.555 243.325L646.507 409.341L646.572 646.649L646.575 715.569C646.576 722.194 646.984 742.802 646.279 747.976C656.2 747.898 666.121 747.9 676.042 747.981C676.435 769.106 676.196 791.946 676.019 813.134C661.631 813.647 644.663 813.248 630.129 813.239L547.243 813.217C481.38 813.208 414.075 813.952 348.332 813.192C347.539 793.124 348.1 768.271 348.305 747.997C358.119 747.75 368.385 747.914 378.233 747.932L378.229 502.908L378.201 440.733C378.197 435.979 377.874 416.51 378.556 412.879Z"/><path fill="#4D6230" d="M378.556 412.879C377.988 410.776 377.978 409.198 377.973 407.033C377.925 387.479 377.951 367.902 377.958 348.35L377.948 238.179L377.946 195.52C377.946 191.921 377.742 177.985 378.345 175.392L555.322 175.329L614.766 175.325C624.706 175.325 636.498 175.015 646.261 175.407C646.939 179.821 646.61 193.294 646.603 198.476L646.555 243.325L646.507 409.341L646.572 646.649L646.575 715.569C646.576 722.194 646.984 742.802 646.279 747.976C645.757 744.772 646.07 724.714 646.077 720.185L646.134 658.603L646.116 496.402C646.116 468.634 646.419 440.49 646.063 412.772C641.71 412.813 637.359 412.907 633.009 413.056L393.19 413.069C391.219 412.817 381.105 412.914 378.556 412.879Z"/><path fill="#BDC198" d="M378.556 412.879C377.988 410.776 377.978 409.198 377.973 407.033C377.925 387.479 377.951 367.902 377.958 348.35L377.948 238.179L377.946 195.52C377.946 191.921 377.742 177.985 378.345 175.392C378.727 182.182 378.472 191.149 378.455 198.105L378.405 238.02L378.429 363.983C378.421 370.117 377.832 408.011 378.82 410.932C379.837 411.384 381.342 411.397 382.32 411.059L550.797 411.116L607.406 411.115C615.436 411.114 628.273 411.5 635.844 411.04C639.042 411.415 642.786 411.203 646.055 411.12L646.132 252.535L646.114 203.115C646.111 194.642 645.821 183.7 646.261 175.407C646.939 179.821 646.61 193.294 646.603 198.476L646.555 243.325L646.507 409.341L646.572 646.649L646.575 715.569C646.576 722.194 646.984 742.802 646.279 747.976C645.757 744.772 646.07 724.714 646.077 720.185L646.134 658.603L646.116 496.402C646.116 468.634 646.419 440.49 646.063 412.772C641.71 412.813 637.359 412.907 633.009 413.056L393.19 413.069C391.219 412.817 381.105 412.914 378.556 412.879Z"/><path fill="#1C2A13" d="M382.32 411.059C386.531 409.815 396.251 410.24 400.998 410.098C414.114 409.707 427.428 410.261 440.516 410.172L583.165 410.248C601.985 410.394 618.989 410.185 637.984 410.691L638.179 410.811L635.844 411.04C628.273 411.5 615.436 411.114 607.406 411.115L550.797 411.116L382.32 411.059Z"/><path fill="#FDCF58" d="M500.839 275.395C504.63 274.922 507.515 273.476 511.503 273.276C529.145 272.389 539.425 293.038 528.143 306.626C523.129 312.664 516.356 315.213 508.696 313.538L508.984 312.862C508.486 312.783 507.992 312.684 507.502 312.567C498.79 313.838 492.491 303.216 491.428 295.611C489.816 284.085 496.556 282.618 500.839 275.395Z"/><path fill="#1C2A13" d="M500.839 275.395C504.63 274.922 507.515 273.476 511.503 273.276C529.145 272.389 539.425 293.038 528.143 306.626C523.129 312.664 516.356 315.213 508.696 313.538L508.984 312.862C519.393 314.516 529.213 307.536 531.07 297.16C532.928 286.785 526.14 276.831 515.803 274.771C505.465 272.712 495.381 279.304 493.12 289.599C490.859 299.894 497.253 310.105 507.502 312.567C498.79 313.838 492.491 303.216 491.428 295.611C489.816 284.085 496.556 282.618 500.839 275.395Z"/><path fill="#9DAE51" d="M389.456 183.791L390.097 184.593C390.803 189.46 390.393 210.997 390.391 217.234L390.395 287.311L390.407 365.802C390.414 373.932 390.938 398.258 390.002 405.214L389.106 404.253C388.245 391.004 388.976 369.956 388.983 356.076L389.004 260.45L388.949 208.881C388.94 204.037 388.594 187.557 389.456 183.791Z"/><path fill="#1C2A13" d="M393.19 413.069L633.009 413.056C622.766 414.637 600.962 413.756 590.054 413.723L515.016 413.745L429.998 414.008C423.639 414.009 397.846 414.47 393.19 413.069Z"/><path fill="#9DAE51" d="M389.485 419.81C390.526 421.06 390.393 421.801 390.393 423.732C390.397 445.127 390.397 466.559 390.415 487.95L390.4 623.254L390.406 700.207C390.418 714.122 390.933 731.663 389.986 745.219C389.553 744.876 389.311 744.726 389.298 744.454C388.699 731.244 388.976 702.5 388.977 691.125L388.986 490.212L388.945 443.294C388.941 438.629 388.61 423.343 389.485 419.81Z"/></svg>