<?xml version="1.0" encoding="utf-8" ?><svg xmlns="http://www.w3.org/2000/svg" xmlns:xlink="http://www.w3.org/1999/xlink" width="1024" height="1024" viewBox="0 0 1024 1024"><path fill="#FEFEFB" d="M0 0L1024 0L1024 1024L0 1024L0 0Z"/><path fill="#4B6229" d="M237.723 670.474L783.014 670.47C783.342 702.355 783.027 734.8 783.023 766.722L782.999 949.009L827.255 948.964L827.218 956.617C812.723 956.947 797.314 956.684 782.75 956.676L193.595 956.722L193.63 949.018L237.608 948.958C238.196 922.205 237.665 893.415 237.668 866.549L237.723 670.474Z"/><path fill="#FEFEFB" d="M257.615 691.137C282.872 690.484 310.514 691.008 335.91 691.009L481.824 691.013L663.97 691.009C696.792 691.009 730.658 690.608 763.398 691.138L763.405 791.574L257.578 791.566L257.615 691.137Z"/><path fill="#FEFEFB" d="M424.502 822.038L529.036 821.988C551.082 821.984 574.45 821.615 596.396 822.133L596.428 948.977L424.554 948.963C423.992 907.15 424.509 863.954 424.502 822.038Z"/><path fill="#FDCB38" d="M612.608 828.571L634.137 828.574C634.15 831.977 634.665 849.183 633.341 850.796C626.684 850.607 619.3 850.768 612.589 850.774C612.556 843.373 612.563 835.972 612.608 828.571Z"/><path fill="#6D9838" d="M496.978 346.28C506.226 345.803 515.491 345.748 524.743 346.118C606.51 349.196 683.596 385.057 738.623 445.615C782.319 492.81 810.014 552.585 817.765 616.433C819.049 627.557 819.87 639.343 819.762 650.584C819.743 652.533 819.584 652.994 818.473 654.007C816.926 653.411 816.576 650.925 816.564 649.428C816.393 627.213 813.846 605.573 808.742 583.87C796.188 531.115 769.778 482.667 732.241 443.531C677.93 386.936 602.997 351.089 524.144 349.413C454.21 346.307 385.327 367.287 328.998 408.851C254.872 463.76 206.195 549.246 205.191 642.221C205.153 645.712 205.283 649.532 204.775 652.963C203.707 653.869 204.322 653.504 202.473 653.509C201.761 652.399 201.808 651.517 201.803 650.165C201.514 570.544 230.975 501.229 285.301 443.305C340.402 384.45 416.424 349.604 496.978 346.28Z"/><path fill="#6D9838" d="M506.783 418.246C558.036 416.656 608.423 431.73 650.383 461.206C702.33 498.112 737.328 554.291 747.553 617.188C748.436 622.563 752.178 650.544 749.745 653.93C747.913 653.883 747.716 652.601 747.512 650.288C747.029 644.797 746.839 639.24 746.363 633.724C745.53 623.887 744.009 614.12 741.812 604.495C732.298 561.619 710.943 522.273 680.177 490.931C635.595 445.446 577.83 422.043 514.369 421.453C504.485 421.413 496.649 421.648 486.762 422.54C385.824 430.967 302.038 503.94 279.831 602.766C276.305 618.619 274.604 634.171 274.321 650.349C274.3 651.565 273.938 652.964 273.147 653.912L271.798 653.793C269.985 651.352 272.543 627.129 273.126 622.537C279.256 573.488 300.969 527.702 335.069 491.917C380.603 443.959 441.238 419.94 506.783 418.246Z"/><path fill="#6D9838" d="M504.783 487.714C511.735 487.429 518.698 487.565 525.634 488.123C569.738 491.476 609.321 509.746 638.354 543.633C660.616 569.334 674.845 601.005 679.275 634.717C679.75 638.575 681.919 651.852 679.361 654.001C678.372 653.732 677.734 653.282 677.652 652.172C676.79 640.508 675.725 629.481 673.02 618.058C666.143 590.007 652.444 564.087 633.141 542.603C601.791 507.972 562.893 493.154 517.286 490.934C490.72 490.327 464.892 494.349 440.383 504.907C393.469 525.206 359.009 566.611 347.566 616.431C346.052 622.946 344.925 629.544 344.192 636.192C343.777 639.904 343.485 651.487 342.547 653.856L341.725 654.124C338.59 651.401 340.569 640.332 340.974 636.273C347.546 570.379 394.077 513.066 458.168 495.093C474.77 490.437 487.5 488.72 504.783 487.714Z"/><path fill="#6D9838" d="M505.763 556.222C511.077 555.949 517.834 556.159 523.077 556.799C549.349 559.973 573.285 573.451 589.622 594.269C601.766 610.02 611.268 631.969 610.919 652.663C610.901 653.691 610.609 653.56 609.797 654.123C609.07 654.1 608.174 654.061 608.073 653.146C607.337 646.448 607.006 640.564 605.359 633.893C601.208 616.955 592.661 601.413 580.582 588.835C563.201 570.672 539.356 560.099 514.226 559.413C512.865 559.374 511.504 559.361 510.144 559.374C459.123 559.577 416.445 595.319 412.484 647.052C412.347 648.849 412.439 652.863 411.365 653.947L410.242 653.791C409.34 652.729 409.05 651.706 409.083 650.316C409.765 621.529 424.069 594.571 446.832 576.985C463.854 563.835 484.283 557.334 505.763 556.222Z"/><path fill="#6D9838" d="M507.098 642.861C513.534 641.026 520.238 644.756 522.073 651.192C523.908 657.628 520.177 664.332 513.741 666.167C507.306 668.001 500.602 664.271 498.768 657.835C496.933 651.4 500.663 644.696 507.098 642.861Z"/></svg>