<?xml version="1.0" encoding="utf-8" ?><svg xmlns="http://www.w3.org/2000/svg" xmlns:xlink="http://www.w3.org/1999/xlink" width="1024" height="1024" viewBox="0 0 1024 1024"><path fill="#FEFEFC" d="M0 0L1024 0L1024 1024L0 1024L0 0Z"/><path fill="#527220" d="M296.735 151.664L726.987 151.719L727.062 558.177L727.064 747.545C727.064 781.269 727.401 815.622 726.961 849.293L453.829 849.332C402.012 849.326 348.333 850.062 296.67 849.235L296.735 151.664Z"/><path fill="#FEFEFC" d="M303.637 158.693C322.293 158.079 344.049 158.628 362.887 158.637L476.673 158.65L634.406 158.645C662.794 158.643 691.997 158.296 720.305 158.76L720.309 609.984L720.317 760.16C720.324 787.253 720.763 815.391 720.206 842.346C666.69 843.199 610.902 842.41 557.25 842.401L303.601 842.373L303.637 158.693Z"/><path fill="#6F9F2F" d="M376.445 198.507L381.389 196.615L462.64 393.295C474.437 421.887 487.746 451.755 498.764 480.457C497.121 481.343 495.512 482.173 493.943 483.191C491.981 476.585 485.254 461.532 482.294 454.454L458.775 398.183L376.445 198.507Z"/><path fill="#6F9F2F" d="M516.512 503.441L642.547 660.541L681.883 709.611C688.219 717.532 696.261 727.006 702.099 735.082L698.228 738.289C683.621 721.379 667.957 700.856 653.861 683.212L560.465 566.636C545.255 547.7 528.279 525.472 512.654 507.311C513.867 505.955 515.206 504.712 516.512 503.441Z"/><path fill="#6F9F2F" d="M493.225 506.411C494.649 507.204 496.275 508.042 497.588 508.964C493.353 518.478 487.364 529.684 482.583 539.188L457.409 589.455L389.821 724.615L385.183 722.302L449.489 593.532L493.225 506.411Z"/><path fill="#6F9F2F" d="M654.383 342.412L658.057 346.271L566.091 438.133C550.016 454.178 533.07 471.69 516.696 487.237L513.293 483.343L654.383 342.412Z"/><path fill="#FCD545" d="M498.764 480.457C504.454 479.489 508.469 479.649 513.293 483.343L516.696 487.237C519.127 493.238 519.391 496.727 516.719 502.968L516.512 503.441C515.206 504.712 513.867 505.955 512.654 507.311C507.277 510.163 503.46 510.876 497.588 508.964C496.275 508.042 494.649 507.204 493.225 506.411C490.401 502.545 489.609 501.283 488.367 496.853L488.641 491.874C490.227 487.611 490.985 486.404 493.943 483.191C495.512 482.173 497.121 481.343 498.764 480.457Z"/><path fill="#6F9F2F" d="M488.367 496.853C470.889 496.045 347.622 497.656 345.278 496.579C344.981 496.442 344.808 496.124 344.573 495.896C344.096 494.171 344.055 494.292 344.536 492.584C344.848 492.367 345.161 492.151 345.473 491.935C356.326 491.916 369.975 491.929 380.54 491.934L488.641 491.874L488.367 496.853Z"/></svg>