<?xml version="1.0" encoding="utf-8" ?><svg xmlns="http://www.w3.org/2000/svg" xmlns:xlink="http://www.w3.org/1999/xlink" width="1024" height="1024" viewBox="0 0 1024 1024"><path fill="#FFFEFC" d="M0 0L1024 0L1024 1024L0 1024L0 0Z"/><path fill="#3E5A1C" d="M89.434 270.778C97.068 270.2 110.162 270.617 118.101 270.622L171.976 270.616L348.746 270.621L934.315 270.559C933.787 312.476 934.237 355.405 934.241 397.418L934.266 621.523L934.233 790.086C934.22 819.157 933.83 849.188 934.322 878.18C904.435 877.74 873.857 878.053 843.925 878.06L685.857 878.068L102.487 878.026C102.333 878.375 102.173 878.721 102.009 879.064C98.8916 885.508 92.1532 888.997 85.4475 885.511C82.3544 883.904 80.0319 881.127 78.9967 877.799C78.0932 874.876 78.4093 871.713 79.8731 869.026C82.0315 865.129 85.4172 863.612 89.4613 862.507L89.434 270.778Z"/><path fill="#FFFEFC" d="M91.9622 273.25C172.086 272.292 253.82 273.165 334.067 273.131L931.798 273.128L931.686 875.473L102.585 875.492C102.487 867.891 99.2128 864.315 91.9432 862.51L91.9622 273.25Z"/><path fill="#3E5A1C" d="M114.063 296.535C121.641 296.58 129.219 296.584 136.797 296.547C137.35 338.983 136.985 383.743 136.711 426.306L887.082 426.293L886.999 296.565C894.492 296.645 902.118 296.565 909.623 296.559L909.667 437.39C912.381 439.183 916.902 441.482 919.877 443.103L919.865 462.834L909.666 462.932C909.629 514.818 910.144 567.454 909.587 619.268L919.919 624.866C919.769 631.281 919.886 638.087 919.896 644.534L909.823 644.642C909.311 667.283 909.643 691.016 909.655 713.75L909.696 800.419C913.323 802.717 916.003 804.23 919.823 806.199C919.773 812.763 919.853 819.425 919.874 825.997C886.152 825.534 851.326 825.989 817.532 825.984L611.775 825.975L103.833 826.028C104.04 819.313 103.996 813.04 103.905 806.318L114.145 800.485L114.053 644.651C110.715 644.575 107.21 644.628 103.856 644.629C104.066 638.061 103.956 631.508 103.899 624.936L114.106 619.296L114.045 462.901L103.903 462.79C103.983 456.26 103.992 449.729 103.93 443.199L114.131 437.573L114.063 296.535Z"/><path fill="#FFFEFC" d="M154.996 462.747L641.611 462.75L804.827 462.768C830.513 462.777 861.904 461.878 887.16 462.89L887.083 607.912L875.563 607.989L136.782 607.986L136.728 462.881L154.996 462.747Z"/><path fill="#6BA33D" d="M509.481 541.865C511.461 541.82 511.852 541.759 513.743 542.204C515.139 544.021 514.434 567.65 514.417 571.268C518.986 571.29 539.897 570.589 542.503 571.916C542.651 573.412 542.913 574.443 542.366 575.828C536.889 576.555 520.7 576.151 514.445 576.146C514.466 585.771 514.439 595.395 514.364 605.019C512.39 605.123 512.169 605.12 510.217 604.843C508.848 603.243 509.409 580.129 509.416 576.319C504.231 576.022 484.513 576.739 481.463 575.513C481.241 573.723 481.113 573.4 481.625 571.62C484.565 570.897 505.094 571.216 509.471 571.228L509.481 541.865Z"/><path fill="#FFFEFC" d="M136.839 644.639L887.065 644.643L887.031 745.283L887.143 773.953C887.156 778.065 887.386 785.333 886.931 789.028L136.874 789.008C136.413 766.883 136.705 743.855 136.742 721.665L136.839 644.639Z"/><path fill="#FFFEFC" d="M106.445 808.492L917.382 808.567L917.333 823.382C901.454 823.728 884.394 823.425 868.441 823.432L772.102 823.44L496.389 823.439L241.494 823.434L155.642 823.463C139.477 823.467 122.624 823.729 106.519 823.311L106.445 808.492Z"/><path fill="#FFFEFC" d="M106.472 445.425L272.508 445.424L690.183 445.424L917.395 445.565C917.47 450.458 917.409 455.351 917.214 460.241C886.837 460.831 855.091 460.337 824.65 460.332L651.645 460.346L106.501 460.351L106.472 445.425Z"/><path fill="#FFFEFC" d="M106.522 627.041C130.969 627.529 157.285 627.034 181.892 627.032L334.63 627.025L917.413 627.105L917.315 641.977L106.514 642.013C106.447 637.081 106.515 631.986 106.522 627.041Z"/><path fill="#FFFEFC" d="M135.897 791.616L648.139 791.523L811.785 791.54L860.168 791.518C866.864 791.511 880.04 791.372 886.07 791.788C890.997 792.128 908.616 802.871 914.018 805.912L888.25 805.98L110.053 806.027C118.082 801.22 127.608 796.008 135.897 791.616Z"/><path fill="#FFFEFC" d="M513.282 428.746L778.318 428.785L853.842 428.814C863.249 428.835 877.464 428.49 886.318 429.14C890.754 429.466 908.116 439.819 914.054 442.79L511.25 442.908L109.862 442.929C115.507 439.975 133.008 429.412 137.791 429.128C147.81 428.531 162.155 428.797 172.533 428.794L248.701 428.8L513.282 428.746Z"/><path fill="#FFFEFC" d="M135.642 610.587C153.375 610.018 173.637 610.489 191.59 610.491L298.132 610.498L620.564 610.49L802.198 610.503L856.759 610.475C865.253 610.47 878.706 610.211 886.903 610.886C890.907 611.215 909.777 622.188 913.963 624.482L888.948 624.524L109.871 624.502C117.136 621.119 128.474 614.546 135.642 610.587Z"/><path fill="#FFFEFC" d="M127.415 462.745L134.313 462.821C134.019 511.154 134.898 560.128 134.148 608.316L122.729 614.628L116.663 617.831L116.664 462.918L127.415 462.745Z"/><path fill="#FFFEFC" d="M116.737 644.639C122.555 644.555 128.374 644.543 134.193 644.604L134.318 789.38L129.836 791.89C125.75 794.336 120.926 796.825 116.705 799.129C116.588 796.287 116.605 793.382 116.627 790.536C117.012 741.943 116.119 693.221 116.737 644.639Z"/><path fill="#FFFEFC" d="M902.001 462.741L907.095 462.878L907.098 617.848L899.787 613.894C896.424 612.183 893.047 610.091 889.79 608.15C889.025 593.261 889.617 572.787 889.62 557.585L889.632 462.905L902.001 462.741Z"/><path fill="#FFFEFC" d="M889.625 644.62C895.058 644.502 901.8 644.387 907.135 644.739L907.008 799.179C901.344 795.786 895.394 792.568 889.609 789.354C890.282 741.756 889.621 692.359 889.625 644.62Z"/><path fill="#FFFEFC" d="M116.658 299.208C122.537 299.006 128.393 299.084 134.274 299.117L134.24 426.616L129.785 429.125C125.502 431.557 121.158 433.881 116.758 436.093C116.077 421.005 116.637 401.459 116.632 386.118L116.658 299.208Z"/><path fill="#FFFEFC" d="M889.613 299.069C895.448 299.002 901.284 299.054 907.118 299.227L907.026 436.178C901.254 433.098 895.514 429.957 889.808 426.754C889.18 412.931 889.636 396.169 889.633 382.064L889.613 299.069Z"/><path fill="#FECE5F" d="M91.9432 862.51C99.2128 864.315 102.487 867.891 102.585 875.492L102.487 878.026C102.333 878.375 102.173 878.721 102.009 879.064C98.8916 885.508 92.1532 888.997 85.4475 885.511C82.3544 883.904 80.0319 881.127 78.9967 877.799C78.0932 874.876 78.4093 871.713 79.8731 869.026C82.0315 865.129 85.4172 863.612 89.4613 862.507L91.9432 862.51Z"/></svg>