<?xml version="1.0" encoding="utf-8" ?><svg xmlns="http://www.w3.org/2000/svg" xmlns:xlink="http://www.w3.org/1999/xlink" width="1808" height="1024" viewBox="0 0 1808 1024"><path fill="#FDFDFB" d="M0 0L1808 0L1808 94.3314L1808 105.184L1808 935.995L1808 936.808L1808 940.555L1808 1024L0 1024L0 940.516L0 936.817L0 935.997L0 0Z"/><path fill="#475E24" d="M91.2053 387.468L750.681 387.416L750.65 430.57L695.649 430.628L695.623 734.744C717.997 734.631 740.372 734.63 762.746 734.743L762.829 745.945L750.536 746.04L750.49 936.065L1808 935.995L1808 936.808L1808 940.555L1808 1024L0 1024L0 940.516L0 936.817L0 935.997L91.1226 936.095L91.1148 746.012L79.3147 745.988L79.4009 734.723L146.624 734.589L146.677 430.586L91.1523 430.589L91.2053 387.468Z"/><path fill="#FDFDFB" d="M0 940.516L1808 940.555L1808 1024L0 1024L0 940.516Z"/><path d="M0 936.817L1808 936.808L1808 940.555L0 940.516L0 936.817Z"/><path fill="#FDFDFB" d="M164.793 430.67C223.411 430.031 283.056 430.575 341.738 430.575L677.827 430.581L677.694 734.573L164.632 734.795C165.28 705.059 164.691 672.927 164.684 642.944L164.793 430.67Z"/><path fill="#AFBD8E" d="M1299.84 94.4192L1808 94.3314L1808 105.184L1310.76 105.279L1310.78 146.454L1299.88 146.417C1299.75 129.085 1299.74 111.752 1299.84 94.4192Z"/><path fill="#FBCA52" d="M1234.14 372.986C1236.26 364.228 1246.76 353.78 1254.27 349.124C1267.32 341.13 1283.03 338.722 1297.87 342.442C1317.2 347.238 1337.17 364.499 1339.05 385.206C1339.18 385.949 1339.39 387.641 1339.71 388.203C1341.14 397.765 1340.03 407.534 1336.52 416.54C1331.04 430.327 1320.24 441.327 1306.56 447.055C1292.35 453.108 1276.29 453.076 1262.11 446.966C1248.4 441.185 1237.63 430.097 1232.24 416.232C1226.94 402.749 1227.19 387.717 1232.93 374.414L1234.14 372.986Z"/><path fill="#FCE5A5" d="M1342.69 442.107C1348.47 444.066 1390.46 477.397 1399.24 484.079L1586.27 627.674L1623.66 656.453C1628.48 660.157 1640.25 668.738 1643.98 672.811C1639.63 671.58 1596.37 637.335 1589.72 632.208L1417.32 499.799C1406.07 491.24 1347.89 449.135 1342.69 442.107Z"/><path fill="#FCE5A5" d="M1339.05 385.206L1535.35 355.13L1599.36 345.567C1607.27 344.412 1613.39 342.407 1621.56 342.251L1622.02 342.795C1613.84 346.015 1592.61 347.802 1583.09 349.319C1503.22 362.042 1423.19 373.825 1343.27 386.165C1341.79 386.392 1340.55 387 1339.71 388.203C1339.39 387.641 1339.18 385.949 1339.05 385.206Z"/><path fill="#FCE5A5" d="M1238.99 442.214L1239.11 443.515C1234.01 450.741 1223.3 462.59 1217.27 469.642L1176.76 517.025L1050.48 664.959L1050.53 664.219L1049.96 663.777C1058.5 652.364 1071.64 637.935 1081.27 626.657L1137.25 560.999L1203.04 483.865C1214.07 470.941 1227.46 454.382 1238.99 442.214Z"/><path fill="#FCE5A5" d="M1232.93 374.414C1229.07 372.19 1216.6 367.868 1211.9 366.149L1172.24 351.677L1081.13 318.096C1056.64 309.118 1031.68 300.05 1007.16 291.247C1003.07 289.779 998.771 289.186 995.194 286.554L995.188 285.437C998.978 285.901 1012.81 291.801 1017.37 293.455L1065.78 310.83L1170.84 349.414C1191.42 356.955 1213.99 364.773 1234.14 372.986L1232.93 374.414Z"/><path fill="#FCE5A5" d="M1454.63 196.183L1455.2 196.58C1455.02 197.821 1334.77 341.608 1323.43 354.27L1323.12 353.142C1324.01 351.1 1452.4 197.66 1454.63 196.183Z"/><path fill="#FCE5A5" d="M1225.27 190.41C1227.37 192.983 1263.21 327.478 1266.23 341.083C1266.07 340.949 1265.89 340.833 1265.74 340.681C1263.37 338.23 1225.56 200.225 1225.27 190.41Z"/><path fill="#FCE5A5" d="M1205.11 411.595L1205.5 412.613C1204.05 413.883 1092.56 436.083 1080.42 438.483L1079.79 437.734C1080.02 437.389 1080.26 437.045 1080.49 436.701C1116.77 429.461 1170.68 418.583 1205.11 411.595Z"/></svg>