<?xml version="1.0" encoding="utf-8" ?><svg xmlns="http://www.w3.org/2000/svg" xmlns:xlink="http://www.w3.org/1999/xlink" width="1536" height="1024" viewBox="0 0 1536 1024"><path fill="#FEFDFC" d="M0 0L1536 0L1536 703.699L1536 706.728L1536 1024L588.274 1024L585.823 1024L53.197 1024L50.4956 1024L0 1024L0 706.734L0 703.735L0 0Z"/><path fill="#62A732" d="M50.4956 1024C67.7711 978.069 101.743 938.192 142.852 911.701C202.104 873.518 274.316 856.9 342.997 845.356C418.791 832.617 495.214 826.692 571.445 817.63C612.749 812.56 654.577 807.894 695.164 798.567C704.722 795.92 723.745 791.101 728.31 781.648C731.798 769.697 700.968 766.329 702.558 756.1C703.68 748.879 722.938 743.962 730.037 742.635C788.22 731.763 848.152 730.012 907.13 726.806C935.331 725.273 963.237 725.116 991.17 721.125C994.517 720.652 1001.27 718.836 1003.01 715.646L1003.15 713.805C1004.45 715.89 1004.19 714.763 1003.78 717.34C999.293 723.112 985.784 723.836 978.811 724.719C936.938 730.022 723.424 731.115 705.291 754.324C704.46 755.389 704.489 756.112 704.299 757.414C707.181 765.016 735.332 770.527 729.845 783.845C727.06 790.604 708.589 796.813 701.171 798.778C668.48 807.438 632.814 812.015 599.254 816.304C555.997 821.543 512.701 826.449 469.368 831.019C325.806 846.684 111.886 867.134 53.197 1024L50.4956 1024Z"/><path fill="#62A732" d="M585.823 1024C617.069 900.295 799.624 862.077 900.031 814.345C904.948 812.007 925.31 800.782 917.225 793.533C898.127 776.411 863.672 774.309 839.189 768.872C834.543 767.89 828.024 767.976 824.964 766.159L825.009 765.208C831.689 762.993 935.707 780.004 919.872 802.703C913.334 812.074 893.665 820.143 882.301 825.133C784.028 868.286 620.893 906.714 588.274 1024L585.823 1024Z"/><path fill="#496326" d="M0 703.735L153.187 703.662C160.626 703.661 203.448 702.768 208.363 704.324L209.228 705.457C207.406 706.739 207.069 706.656 204.523 706.665C181.734 706.751 158.819 706.729 136.032 706.734L0 706.734L0 703.735Z"/><path fill="#496326" d="M1536 703.699L1536 706.728L1427.25 706.726C1420.03 706.727 1371.4 707.902 1368.47 705.079C1373.09 702.797 1418.95 703.698 1428.04 703.698L1536 703.699Z"/><path fill="#496326" d="M827.41 367.352L1272.59 367.4C1272.64 380.116 1272.62 392.831 1272.53 405.547L1257.69 405.716L1257.64 418.581L1248.51 418.741L1248.46 593.764C1256.52 593.676 1264.59 593.706 1272.65 593.855L1272.62 612.424L1260.61 612.577L1260.58 703.726C1273.05 703.666 1289.52 703.443 1302.3 703.801C1303.49 703.835 1303.75 704.866 1304.1 705.625C1301.87 707.675 1276.26 706.618 1271.78 706.79C1235.13 708.198 1198.32 707.668 1161.63 707.667L1066.25 707.677C1048.56 707.675 1029.21 708.027 1011.61 707.442L1009.41 707.332C1008.89 708.388 1008.76 708.801 1008.41 709.926C997.554 706.931 959.218 707.52 946.63 707.528L855.736 707.555L401.16 706.755C372.288 706.755 343.416 706.756 314.544 706.754C302.945 706.753 291.346 706.779 279.747 706.677C279.336 706.317 278.925 705.957 278.514 705.597L278.938 704.408C283.36 702.713 397.78 703.701 409.329 703.701L839.711 703.658L839.795 612.594L827.372 612.471L827.402 593.809L851.472 593.641L851.404 418.794L842.444 418.611L842.497 405.678L827.402 405.584L827.41 367.352Z"/><path fill="#FEFDFC" d="M868.6 418.673L1231.36 418.681L1231.3 593.589C1189.41 594.153 1146.61 593.7 1104.65 593.7L868.691 593.706L868.6 418.673Z"/><path fill="#F9C654" d="M1188.51 90.4761C1203.54 87.8072 1217.89 97.8399 1220.55 112.88C1223.21 127.921 1213.17 142.269 1198.14 144.922C1183.11 147.574 1168.78 137.543 1166.12 122.513C1163.46 107.484 1173.48 93.1429 1188.51 90.4761Z"/><path fill="#62A732" d="M1008.41 709.926C1008.76 708.801 1008.89 708.388 1009.41 707.332L1011.61 707.442L1010.71 708.32C1015.43 709.95 1022.89 711.847 1025.09 716.343C1024.83 718.665 1024.31 719.696 1022.38 721.163C1006.95 732.903 932.54 738.842 908.955 741.263C902.685 741.906 891.114 744.357 885.378 743.348C885.079 743.295 884.782 743.229 884.484 743.169L884.681 742.136C904.587 738.993 1011.98 731.432 1022.54 718.206C1023.3 712.285 1013.03 711.021 1008.41 709.926Z"/><path fill="#181818" d="M1037.96 238.973C1041.65 237.833 1045.57 239.898 1046.72 243.588C1047.87 247.278 1045.82 251.202 1042.13 252.361C1038.43 253.525 1034.49 251.462 1033.33 247.758C1032.18 244.054 1034.25 240.117 1037.96 238.973Z"/><path fill="#62A732" d="M1399.25 227.726C1401.64 226.87 1404.31 227.379 1406.22 229.055C1408.13 230.732 1408.98 233.313 1408.45 235.798C1407.91 238.283 1406.07 240.282 1403.64 241.02C1400 242.124 1396.15 240.125 1394.96 236.516C1393.76 232.906 1395.67 229.005 1399.25 227.726Z"/><path fill="#62A732" d="M821.866 187.21C824.234 186.415 826.846 186.955 828.705 188.622C830.565 190.289 831.386 192.827 830.854 195.268C830.323 197.709 828.522 199.676 826.138 200.419C822.506 201.55 818.64 199.548 817.47 195.928C816.299 192.308 818.26 188.42 821.866 187.21Z"/><path fill="#62A732" d="M676.65 840.258C681.087 840.824 699.504 848.808 704.696 850.97C698.909 856.333 691.316 862.447 685.206 867.65C684.249 867.755 684.689 867.722 683.606 867.184C684.089 864.304 697.035 854.255 700.22 851.596C693.235 848.564 686.248 845.961 679.216 843.089C676.99 842.18 677.217 842.012 676.65 840.258Z"/><path fill="#62A732" d="M568.162 873.996C569.297 873.891 568.826 873.954 570.13 874.632L569.767 875.718C553.325 880.295 538.332 884.579 522.325 890.49C521.234 890.47 521.718 890.486 520.579 889.771C522.928 886.276 561.879 875.773 568.162 873.996Z"/><path fill="#62A732" d="M840.268 778.47C844.175 778.879 851.299 787.434 854.318 790.623C850.422 794.169 845.985 797.867 841.977 801.347C840.743 801.041 841.287 801.351 840.501 800.122C842.323 797.292 848.188 792.978 851.069 790.651C847.786 787.598 841.855 782.49 840.268 778.47Z"/><path fill="#62A732" d="M458.274 916.7C458.511 916.926 458.837 917.725 459.004 918.073C457.31 920.328 437.159 932.145 432.871 934.766C432.261 934.057 432.459 934.124 432.239 933.035C435.924 928.982 452.633 919.896 458.274 916.7Z"/><path fill="#62A732" d="M412.399 946.567C413.496 946.923 413.046 946.582 413.668 947.687C412.248 949.95 395.655 963.919 392.043 967.189L390.887 966.268C391.664 962.798 408.787 949.454 412.399 946.567Z"/><path fill="#62A732" d="M373.237 982.446L374.194 983.55C373.762 986.165 361.527 1000.75 359.089 1003.79L358.273 1002.54C358.564 998.839 370.045 986.203 373.237 982.446Z"/><path fill="#62A732" d="M498.948 897.155L499.779 897.452L499.812 898.721C496.231 901.185 484.367 906.253 479.832 908.305L478.985 907.397C480.854 904.46 494.79 898.979 498.948 897.155Z"/><path fill="#62A732" d="M802.556 751.994C802.903 751.981 803.594 752.276 803.978 752.407L803.319 753.415C795.621 754.888 787.904 756.256 780.17 757.519L779.456 757.345L779.026 756.487C781.536 754.444 798.127 752.608 802.556 751.994Z"/><path fill="#181818" d="M222.7 703.961C226.309 703.731 234.003 702.971 237.396 704.174C238.326 704.504 238.188 705.124 238.586 706.437C234.333 706.68 226.888 707.465 223.221 705.981L222.7 703.961Z"/><path fill="#62A732" d="M608.394 864.433L609.015 864.63L609.186 865.803C605.744 867.421 594.709 869.546 590.366 870.486C589.397 870.212 589.834 870.48 589.129 869.571C591.433 867.367 604.694 865.174 608.394 864.433Z"/><path fill="#181818" d="M251.029 703.939C255.325 703.662 264.146 701.786 265.616 706.433C261.579 706.67 255.385 707.418 251.707 706.016L251.029 703.939Z"/><path fill="#181818" d="M1341.5 703.916C1345.91 703.643 1353.15 701.906 1354.72 706.431C1350.88 706.662 1345.66 707.364 1342.2 706.054L1341.5 703.916Z"/><path fill="#62A732" d="M643.953 857.721C645.148 857.703 644.802 857.606 645.913 857.952L645.562 858.849C640.594 860.46 636.99 860.935 631.882 861.741L629.742 861.965L629.495 861.384C631.4 859.143 640.566 858.216 643.953 857.721Z"/><path fill="#62A732" d="M765.434 758.963L766.621 759.28C767.399 761.625 763.199 761.122 761.77 765.543C762.853 768.711 765.406 768.451 767.421 771.702C758.962 771.096 757.664 764.083 765.434 758.963Z"/><path fill="#181818" d="M1316.94 703.948C1321.53 703.608 1326.97 701.961 1328.87 706.548C1325.43 706.725 1320.36 707.401 1317.47 705.973L1316.94 703.948Z"/><path fill="#62A732" d="M671.849 853.251C672.411 853.161 673.849 853.195 674.492 853.19L674.637 854.04C671.653 855.516 668.656 855.751 665.361 856.243L663.383 856.245L663.371 855.318C666.417 853.603 668.377 853.619 671.849 853.251Z"/><path fill="#62A732" d="M869.726 743.763C870.549 743.544 870.705 743.695 871.64 743.818L871.79 744.474C869.386 745.939 866.961 745.937 864.171 746.198L861.999 746.195L861.539 745.432C864.3 743.891 866.605 743.969 869.726 743.763Z"/><path fill="#62A732" d="M776.895 773.814C780.728 773.311 782.893 774.281 786.009 776.293C782.433 776.381 779.406 776.628 776.895 773.814Z"/></svg>