<?xml version="1.0" encoding="utf-8" ?><svg xmlns="http://www.w3.org/2000/svg" xmlns:xlink="http://www.w3.org/1999/xlink" width="1024" height="1024" viewBox="0 0 1024 1024"><path fill="#FEFEFB" d="M0 0L1024 0L1024 1024L0 1024L0 0Z"/><path fill="#506827" d="M377.395 482.015L377.339 463.021C377.278 448.818 377.211 437.965 388.146 427.001C393.45 421.65 400.268 418.054 407.679 416.697C414.14 415.578 426.081 415.942 432.942 415.956L471.022 415.983L609.773 415.929C621.178 416 631.204 418.642 639.367 427.028C650.215 438.172 650.09 448.762 650.057 462.999L650.01 482.011L650.003 486.497L649.986 584.475L650.032 610.652C650.054 625.365 650.626 638.398 639.142 649.911C629.805 659.272 620.242 661.467 607.271 661.529L471.049 661.531L432.253 661.536C415.377 661.537 401.469 663.195 388.47 650.094C376.991 638.525 377.325 627.977 377.36 612.89L377.408 587.009L377.419 486.473L377.395 482.015Z"/><path fill="#506827" d="M377.395 482.015L377.339 463.021C377.278 448.818 377.211 437.965 388.146 427.001C393.45 421.65 400.268 418.054 407.679 416.697C414.14 415.578 426.081 415.942 432.942 415.956L471.022 415.983L609.773 415.929C621.178 416 631.204 418.642 639.367 427.028C650.215 438.172 650.09 448.762 650.057 462.999L650.01 482.011L650.003 486.497L377.419 486.473L377.395 482.015Z"/><path fill="#181A18" d="M377.395 482.015L541.313 482.071C577.147 482.052 614.339 482.673 650.01 482.011L650.003 486.497L377.419 486.473L377.395 482.015Z"/><path fill="#181A18" d="M469.471 426.552C477.926 426.51 554.76 425.829 557.861 427.147C560.053 429.58 559.474 431.631 557.547 433.986C538.815 434.466 519.342 433.867 500.539 434.149C496.091 434.215 472.612 434.482 469.517 433.62C467.355 431.348 467.934 429.072 469.471 426.552Z"/><path fill="#09C84E" d="M508.562 248.897C525.754 246.646 541.517 258.75 543.782 275.94C546.047 293.13 533.956 308.903 516.768 311.182C499.56 313.464 483.764 301.356 481.497 284.146C479.229 266.936 491.35 251.15 508.562 248.897Z"/><path fill="#8CDC9D" d="M691.652 369.75C695.82 370.676 701.921 375.622 705.164 378.423C726.045 396.254 738.735 421.842 740.294 449.256C742.267 478.808 733.28 504.234 713.906 526.382C712.546 526.365 713.138 526.379 711.722 525.564C711.48 524.893 711.158 524.472 711.462 523.969C714.244 519.41 717.731 515.406 720.701 510.878C745.736 472.709 740.588 418.592 708.058 386.362C702.868 381.219 696.865 377.516 691.27 372.93C690.803 371.22 690.953 371.749 691.652 369.75Z"/><path fill="#8CDC9D" d="M334.424 369.881C335.995 369.963 336.671 370.102 337.225 371.532C336.417 374.137 331.266 377.119 329.103 378.763C284.833 412.406 279.886 481.475 316.168 522.808C317.273 524.068 316.757 524.815 316.403 526.258C315.687 526.365 315.318 526.297 314.588 526.264C312.217 524.748 311.333 523.385 309.675 521.249C284.847 489.276 281.125 444.196 299.502 408.223C307.687 392.201 319.182 379.967 334.424 369.881Z"/><path fill="#09C84E" d="M511.223 325.208C512.731 325.36 512.678 325.315 514.045 325.94C515.744 328.671 514.908 382.354 514.951 388.866C517.461 386.335 520.765 382.385 524.054 381.33C525.767 381.684 525.083 381.261 526.159 382.666C525.687 385.892 516.863 393.032 513.874 395.733L512.281 395.853C508.467 394.045 498.89 385.372 499.261 380.818C502.614 381.048 507.637 386.273 510.498 388.781C510.5 381.865 509.838 328.508 511.223 325.208Z"/><path fill="#8CDC9D" d="M690.635 412.266C693.035 412.54 694.637 414.152 696.339 415.819C707.564 426.773 713.998 441.724 714.237 457.406C714.377 473.488 708.121 488.966 696.845 500.433C695.353 500.594 695.079 500.254 694.188 499.597C694.138 498.483 693.965 498.032 694.8 496.949C698.998 491.506 701.764 488.491 704.761 482.113C707.427 476.443 709.114 470.364 709.753 464.132C711.869 443.346 704.462 428.914 690.207 415.322C689.529 414.676 690.356 413.051 690.635 412.266Z"/><path fill="#8CDC9D" d="M335.558 412.282C337.282 412.526 337.312 412.622 338.207 413.83C338.143 414.742 337.895 415.49 337.269 416.158C332.059 421.721 329.16 424.359 325.281 431.147C321.996 436.796 319.84 443.029 318.934 449.501C316.15 468.291 321.819 483.056 333.679 496.895C334.677 498.06 334.346 499.01 334.119 500.374C331.732 500.567 330.825 499.804 329.241 498.004C319.088 486.347 313.962 471.654 314.297 456.266C314.699 437.804 322.653 424.814 335.558 412.282Z"/></svg>