<?xml version="1.0" encoding="utf-8" ?><svg xmlns="http://www.w3.org/2000/svg" xmlns:xlink="http://www.w3.org/1999/xlink" width="1024" height="1024" viewBox="0 0 1024 1024"><path fill="#FFFFFD" d="M0 0L1024 0L1024 1024L0 1024L0 0Z"/><path fill="#62822E" d="M502.528 192.294C619.952 187.308 719.192 278.442 724.206 395.865C729.221 513.288 638.111 612.55 520.689 617.593C403.227 622.638 303.923 531.49 298.907 414.027C293.891 296.563 385.063 197.281 502.528 192.294Z"/><path fill="#FFFFFD" d="M501.932 195.703C617.586 190.382 715.621 279.9 720.806 395.561C725.99 511.222 636.358 609.151 520.691 614.2C405.216 619.241 307.484 529.789 302.308 414.32C297.132 298.851 386.469 201.014 501.932 195.703Z"/><path fill="#0EC839" d="M510.865 257.847C513.88 260.369 519.73 266.495 522.615 269.4L544.051 290.955L605.369 352.545C615.003 362.228 625.51 373.508 635.347 382.717L550.16 382.72C550.812 401.83 550.371 423.038 550.374 442.261L550.296 547.974L514.497 547.915L471.438 547.943L471.427 382.675L386.597 382.579C428.214 341.688 469.681 299.281 510.865 257.847Z"/><path fill="#FFFFFD" d="M510.758 262.859C512.732 263.696 538.597 290.201 541.77 293.381L627.323 379.489L546.907 379.464C547.556 434.138 546.773 489.71 547.01 544.518L511.232 544.547C499.107 544.612 486.98 544.571 474.855 544.425L474.909 379.182C449.6 380.189 420.626 379.075 394.73 379.451C407.045 365.845 424.306 349.535 437.561 336.261L510.758 262.859Z"/><path fill="#FED354" d="M321.038 154.847C327.727 154.543 333.436 159.632 333.9 166.312C334.363 172.991 329.412 178.82 322.746 179.443C318.289 179.86 313.957 177.829 311.427 174.137C308.896 170.445 308.565 165.672 310.561 161.666C312.557 157.66 316.567 155.05 321.038 154.847Z"/><path fill="#62822E" d="M737.575 170.279C744.194 169.057 750.56 173.398 751.84 180.006C753.12 186.613 748.835 193.018 742.24 194.356C735.561 195.712 729.057 191.361 727.761 184.67C726.465 177.979 730.873 171.515 737.575 170.279Z"/><path fill="#FED354" d="M798.207 263.326C804.048 262.403 809.541 266.36 810.516 272.193C811.491 278.025 807.582 283.554 801.759 284.58C795.862 285.619 790.248 281.651 789.261 275.745C788.274 269.839 792.292 264.261 798.207 263.326Z"/><path fill="#62822E" d="M226.665 240.823C232.28 240.086 237.45 243.985 238.286 249.586C239.122 255.187 235.315 260.425 229.729 261.359C226.783 261.852 223.768 261.053 221.453 259.165C219.139 257.277 217.749 254.483 217.64 251.498C217.444 246.145 221.353 241.521 226.665 240.823Z"/></svg>